<?xml version="1.0" encoding="utf-8"?>
<!-- Generator: Adobe Illustrator 23.0.3, SVG Export Plug-In . SVG Version: 6.00 Build 0)  -->
<svg version="1.1" id="Layer_1" xmlns="http://www.w3.org/2000/svg" xmlns:xlink="http://www.w3.org/1999/xlink" x="0px" y="0px"
	 viewBox="0 0 600 600" style="enable-background:new 0 0 600 600;" xml:space="preserve">
<style type="text/css">
	.st0{fill:#FFA7F4;}
</style>
<g>
	<path class="st0" d="M308.49,262.71c-2.63-3.03-5.47-5.88-8.49-8.52C284.89,241.01,265.13,233,243.5,233c-47.5,0-86,38.5-86,86
		c0,47.5,38.5,86,86,86c21.63,0,41.39-8.01,56.5-21.19c3.02-2.64,5.86-5.48,8.49-8.52c13.08-15.09,21.01-34.75,21.01-56.29
		S321.57,277.8,308.49,262.71z M300,366.77c-2.59,3.07-5.44,5.91-8.49,8.52C278.59,386.32,261.83,393,243.5,393
		c-40.87,0-74-33.13-74-74s33.13-74,74-74c18.33,0,35.09,6.68,48.01,17.71c3.05,2.61,5.89,5.46,8.49,8.52
		c10.91,12.89,17.5,29.56,17.5,47.77S310.91,353.87,300,366.77z"/>
	<path class="st0" d="M298.89,272.6c-0.07-0.08-0.14-0.17-0.21-0.26c-2.53-2.99-5.3-5.77-8.27-8.31
		C278,278.94,270.5,298.09,270.5,319s7.5,40.06,19.91,54.96c2.98-2.54,5.75-5.32,8.27-8.31c0.07-0.08,0.14-0.17,0.21-0.26
		c-10.24-12.69-16.39-28.82-16.39-46.4S288.65,285.29,298.89,272.6z"/>
	<path class="st0" d="M290.41,373.96c0.37,0.44,0.72,0.89,1.1,1.32c3.05-2.61,5.89-5.46,8.49-8.52c-0.38-0.45-0.74-0.91-1.11-1.37
		c-0.07,0.08-0.14,0.17-0.21,0.26C296.16,368.64,293.39,371.42,290.41,373.96z"/>
	<path class="st0" d="M356.5,233c-20.91,0-40.05,7.49-54.95,19.9c3.01,2.64,5.83,5.48,8.45,8.5c0.01,0.01,0.02,0.03,0.04,0.04
		c12.7-10.27,28.85-16.45,46.46-16.45c40.87,0,74,33.13,74,74s-33.13,74-74,74c-18.33,0-35.09-6.68-48.01-17.71
		c-2.63,3.03-5.47,5.88-8.49,8.52c15.11,13.19,34.87,21.19,56.5,21.19c47.5,0,86-38.5,86-86C442.5,271.5,404,233,356.5,233z"/>
	<g>
		<g>
			<polygon class="st0" points="221.51,207.18 228.13,195.71 234.75,207.18 			"/>
			<polygon class="st0" points="236.88,207.18 243.5,195.71 250.12,207.18 			"/>
			<polygon class="st0" points="252.25,207.18 258.87,195.71 265.49,207.18 			"/>
			<polygon class="st0" points="251.8,208.36 265.3,208.36 244.8,232.65 			"/>
			<polygon class="st0" points="236.69,208.36 250.31,208.36 243.5,232.88 			"/>
			<polygon class="st0" points="221.7,208.36 235.2,208.36 242.2,232.65 			"/>
			<polygon class="st0" points="244.57,195 257.81,195 251.19,206.47 			"/>
			<polygon class="st0" points="229.19,195 242.43,195 235.81,206.47 			"/>
		</g>
	</g>
</g>
</svg>
